<svg width="43" height="43" viewBox="0 0 43 43" fill="none" xmlns="http://www.w3.org/2000/svg">
<path fill-rule="evenodd" clip-rule="evenodd" d="M21.4545 3.57568C11.5803 3.57568 3.57617 11.5798 3.57617 21.4541C3.57617 24.8331 4.51479 27.9975 6.14708 30.6936L4.55233 36.1143C4.46077 36.4256 4.45474 36.7557 4.53489 37.0701C4.61504 37.3844 4.7784 37.6714 5.0078 37.9008C5.2372 38.1302 5.52417 38.2936 5.83853 38.3737C6.1529 38.4539 6.48305 38.4478 6.79428 38.3563L12.215 36.7615C15.0018 38.4474 18.1975 39.3366 21.4545 39.3324C31.3288 39.3324 39.3329 31.3283 39.3329 21.4541C39.3329 11.5798 31.3288 3.57568 21.4545 3.57568ZM17.4105 25.4999C21.0273 29.1149 24.4796 29.5923 25.6989 29.637C27.5529 29.7049 29.3586 28.289 30.0612 26.6459C30.1492 26.4414 30.1809 26.2171 30.1533 25.9961C30.1256 25.7752 30.0395 25.5657 29.9039 25.3891C28.9241 24.1376 27.5993 23.2383 26.305 22.3444C26.0348 22.1571 25.7026 22.0819 25.3782 22.1346C25.0537 22.1872 24.7624 22.3637 24.5654 22.6269L23.4927 24.2628C23.436 24.3504 23.3481 24.4131 23.2469 24.4384C23.1456 24.4636 23.0386 24.4494 22.9474 24.3986C22.2197 23.9821 21.1596 23.2741 20.3979 22.5125C19.6363 21.7508 18.9712 20.7389 18.5976 20.0578C18.5524 19.971 18.5396 19.8709 18.5616 19.7755C18.5835 19.6802 18.6388 19.5958 18.7174 19.5375L20.3693 18.311C20.6058 18.1065 20.7584 17.8219 20.798 17.5118C20.8376 17.2017 20.7613 16.8879 20.5839 16.6305C19.7829 15.4577 18.8497 13.9666 17.4963 12.9779C17.3212 12.8522 17.1167 12.7737 16.9024 12.7502C16.6882 12.7268 16.4715 12.759 16.2734 12.8438C14.6286 13.5482 13.2055 15.354 13.2734 17.2115C13.3181 18.4308 13.7955 21.8831 17.4105 25.4999Z" fill="#00A74B"/>
</svg>
