<svg width="19" height="19" viewBox="0 0 19 19" fill="none" xmlns="http://www.w3.org/2000/svg">
<path d="M3.09961 9.3031V11.2754C3.09961 13.791 3.09961 15.0488 3.78651 15.9007C3.92528 16.0728 4.08205 16.2297 4.25416 16.3684C5.10611 17.0553 6.36391 17.0553 8.87947 17.0553C9.42646 17.0553 9.69988 17.0553 9.95035 16.9669C10.0024 16.9485 10.0535 16.9274 10.1033 16.9036C10.3429 16.789 10.5363 16.5956 10.923 16.2088L14.5948 12.537C15.043 12.0888 15.267 11.8648 15.3851 11.5799C15.5031 11.2949 15.5031 10.9781 15.5031 10.3444V7.75267C15.5031 4.82916 15.5031 3.36741 14.5948 2.45918C13.7738 1.6381 12.5003 1.55932 10.1033 1.55176M10.0766 16.6677V16.28C10.0766 14.0874 10.0766 12.9911 10.7577 12.3099C11.4389 11.6287 12.5352 11.6287 14.7279 11.6287H15.1155" stroke="#394050" stroke-width="1.39539" stroke-linecap="round" stroke-linejoin="round"/>
<path d="M3.10156 6.38V4.23325C3.10156 2.75122 4.31633 1.5498 5.81482 1.5498C7.31331 1.5498 8.52808 2.75122 8.52808 4.23325V7.18503C8.52808 7.92603 7.9207 8.52674 7.17145 8.52674C6.4222 8.52674 5.81482 7.92603 5.81482 7.18503V4.23325" stroke="#394050" stroke-width="1.39539" stroke-linecap="round" stroke-linejoin="round"/>
</svg>
