<svg width="26" height="26" viewBox="0 0 26 26" fill="none" xmlns="http://www.w3.org/2000/svg">
<path d="M7.41667 6.91667V7.58333M0.75 9.28333C0.75 6.29667 0.75 4.80333 1.33133 3.662C1.84265 2.65851 2.65851 1.84265 3.662 1.33133C4.80333 0.75 6.29667 0.75 9.28333 0.75H16.2167C19.2033 0.75 20.6967 0.75 21.838 1.33133C22.8415 1.84265 23.6573 2.65851 24.1687 3.662C24.75 4.80333 24.75 6.29667 24.75 9.28333V16.2167C24.75 19.2033 24.75 20.6967 24.1687 21.838C23.6573 22.8415 22.8415 23.6573 21.838 24.1687C20.6967 24.75 19.2033 24.75 16.2167 24.75H9.28333C6.29667 24.75 4.80333 24.75 3.662 24.1687C2.65851 23.6573 1.84265 22.8415 1.33133 21.838C0.75 20.6967 0.75 19.2033 0.75 16.2167V9.28333Z" stroke="black" stroke-width="1.5" stroke-linecap="round" stroke-linejoin="round"/>
<path d="M7.41675 18.5835V11.0835M12.7501 18.5835V14.7502M12.7501 14.7502V11.0835M12.7501 14.7502C12.7501 13.0328 14.3794 12.0835 15.9501 12.0835C18.0834 12.0835 18.0834 13.9168 18.0834 15.9168V18.5835" stroke="black" stroke-width="1.5" stroke-linecap="round" stroke-linejoin="round"/>
</svg>
