<svg width="26" height="26" viewBox="0 0 26 26" fill="none" xmlns="http://www.w3.org/2000/svg">
<path d="M19.4167 5.41667H20.0833M0.75 9.28333C0.75 6.29667 0.75 4.80333 1.33133 3.662C1.84265 2.65851 2.65851 1.84265 3.662 1.33133C4.80333 0.75 6.29667 0.75 9.28333 0.75H16.2167C19.2033 0.75 20.6967 0.75 21.838 1.33133C22.8415 1.84265 23.6573 2.65851 24.1687 3.662C24.75 4.80333 24.75 6.29667 24.75 9.28333V16.2167C24.75 19.2033 24.75 20.6967 24.1687 21.838C23.6573 22.8415 22.8415 23.6573 21.838 24.1687C20.6967 24.75 19.2033 24.75 16.2167 24.75H9.28333C6.29667 24.75 4.80333 24.75 3.662 24.1687C2.65851 23.6573 1.84265 22.8415 1.33133 21.838C0.75 20.6967 0.75 19.2033 0.75 16.2167V9.28333Z" stroke="black" stroke-width="1.5" stroke-linecap="round" stroke-linejoin="round"/>
<path d="M17.366 12.0661C17.4558 12.6724 17.4254 13.2904 17.2764 13.8849C17.1273 14.4794 16.8627 15.0387 16.4975 15.5309C16.1323 16.0231 15.6738 16.4386 15.148 16.7536C14.6223 17.0686 14.0396 17.2769 13.4334 17.3668C12.8271 17.4566 12.2091 17.4261 11.6146 17.2771C11.0201 17.1281 10.4608 16.8634 9.96854 16.4982C8.97447 15.7607 8.3141 14.6585 8.13269 13.4341C7.95128 12.2097 8.2637 10.9633 9.00122 9.96927C9.73874 8.97521 10.8409 8.31483 12.0654 8.13342C13.2898 7.95201 14.5361 8.26443 15.5302 9.00195C16.5242 9.73947 17.1846 10.8417 17.366 12.0661Z" stroke="black" stroke-width="1.5" stroke-linecap="round" stroke-linejoin="round"/>
</svg>
