<svg width="29" height="21" viewBox="0 0 29 21" fill="none" xmlns="http://www.w3.org/2000/svg">
<path d="M16.7499 10.2165L12.0833 12.8831V7.5498L16.7499 10.2165Z" fill="black" stroke="black" stroke-width="1.5" stroke-linecap="round" stroke-linejoin="round"/>
<path d="M0.75 11.1607V9.27267C0.75 5.41267 0.75 3.482 1.95667 2.24067C3.16467 0.998 5.066 0.944667 8.86733 0.836667C10.6673 0.786 12.5073 0.75 14.0833 0.75C15.6593 0.75 17.498 0.786 19.2993 0.836667C23.1007 0.944667 25.002 0.998 26.2087 2.24067C27.4153 3.48333 27.4167 5.414 27.4167 9.27267V11.1593C27.4167 15.0207 27.4167 16.95 26.21 18.1927C25.002 19.434 23.102 19.4887 19.2993 19.5953C17.4993 19.6473 15.6593 19.6833 14.0833 19.6833C12.5073 19.6833 10.6687 19.6473 8.86733 19.5953C5.066 19.4887 3.16467 19.4353 1.95667 18.1927C0.748667 16.95 0.75 15.0193 0.75 11.1607Z" stroke="black" stroke-width="1.5"/>
</svg>
